<svg xmlns="http://www.w3.org/2000/svg" xmlns:xlink="http://www.w3.org/1999/xlink" viewBox="0 0 511.54 628.67"><defs><style>.cls-1{fill:url(#linear-gradient);}.cls-2{fill:url(#linear-gradient-2);}.cls-3{fill:url(#linear-gradient-3);}.cls-4{fill:url(#linear-gradient-4);}.cls-5{fill:url(#linear-gradient-5);}.cls-6{fill:url(#linear-gradient-6);}.cls-7{fill:url(#linear-gradient-7);}.cls-8{fill:url(#linear-gradient-8);}.cls-9{fill:url(#linear-gradient-9);}.cls-10{fill:url(#linear-gradient-10);}.cls-11{fill:url(#linear-gradient-11);}.cls-12{fill:url(#linear-gradient-12);}.cls-13{fill:url(#linear-gradient-13);}</style><linearGradient id="linear-gradient" x1="97.83" y1="547.54" x2="3.26" y2="642.11" gradientTransform="matrix(4, 0, 0, -4, 79.48, 2626.11)" gradientUnits="userSpaceOnUse"><stop offset="0" stop-color="#06daf7"/><stop offset="1" stop-color="#ff6ca8"/></linearGradient><linearGradient id="linear-gradient-2" x1="163.9" y1="380.37" x2="163.9" y2="100.83" gradientTransform="matrix(1, 0, 0, 1, 0, 0)" xlink:href="#linear-gradient"/><linearGradient id="linear-gradient-3" x1="114.47" y1="627.41" x2="114.47" y2="552.49" gradientUnits="userSpaceOnUse"><stop offset="0" stop-color="#06daf7"/><stop offset="1" stop-color="#00c1eb"/></linearGradient><linearGradient id="linear-gradient-4" x1="187.22" y1="627.41" x2="187.22" y2="552.49" xlink:href="#linear-gradient-3"/><linearGradient id="linear-gradient-5" x1="254.39" y1="627.41" x2="254.39" y2="552.49" xlink:href="#linear-gradient-3"/><linearGradient id="linear-gradient-6" x1="318.46" y1="628.67" x2="318.46" y2="551.24" xlink:href="#linear-gradient-3"/><linearGradient id="linear-gradient-7" x1="363.82" y1="576.59" x2="363.82" y2="547.72" xlink:href="#linear-gradient-3"/><linearGradient id="linear-gradient-8" x1="386.66" y1="577.08" x2="386.66" y2="555.49" xlink:href="#linear-gradient-3"/><linearGradient id="linear-gradient-9" x1="410.83" y1="577.08" x2="410.83" y2="555.49" xlink:href="#linear-gradient-3"/><linearGradient id="linear-gradient-10" x1="427.91" y1="576.59" x2="427.91" y2="546.06" xlink:href="#linear-gradient-3"/><linearGradient id="linear-gradient-11" x1="445.73" y1="577.08" x2="445.73" y2="546.06" xlink:href="#linear-gradient-3"/><linearGradient id="linear-gradient-12" x1="469.23" y1="577.08" x2="469.23" y2="555.49" xlink:href="#linear-gradient-3"/><linearGradient id="linear-gradient-13" x1="490.77" y1="576.59" x2="490.77" y2="555.97" xlink:href="#linear-gradient-3"/></defs><g id="Layer_2" data-name="Layer 2"><g id="OBJECT"><path class="cls-1" d="M14,261.06A100.91,100.91,0,0,1,61.79,175a7,7,0,0,0,2.58-9,54.93,54.93,0,0,1,46.51-79.07,7,7,0,0,0,6.63-7v-.32A65.75,65.75,0,0,1,237,41.92a7,7,0,0,0,11.44-8.08A79.76,79.76,0,0,0,103.74,73.59a69,69,0,0,0-59,68.28,68.33,68.33,0,0,0,4.58,24.61A114.73,114.73,0,0,0,0,261.06c0,5.59,6.56,9.65,12.4,4.91a4.81,4.81,0,0,0,1.6-4.91Zm5.51,25.52a7,7,0,0,0-13.18,4.74c1.2,3.37,2.59,6.73,4.11,10a7,7,0,0,0,10.13,2.91A7.2,7.2,0,0,0,23,295.07c-1.29-2.76-2.46-5.62-3.49-8.49Zm492,14.45a27.76,27.76,0,1,1-51.66-14l-88.74-88.75H262.51v42h41.73a27.73,27.73,0,1,1,.34,14H262.51v42H380.43a27.74,27.74,0,1,1,0,14H262.51v42h73.93a27.75,27.75,0,1,1,0,14H262.51v42h79.73a7,7,0,0,1,5.48,2.67l31.57,40.26a27.7,27.7,0,0,1,37.65,14.94,28,28,0,0,1-13.55,35.18,27.79,27.79,0,0,1-34.81-41.14l-29.73-37.91H262.51v1.25a79.47,79.47,0,0,1-158.72,6.18,68.92,68.92,0,0,1-58.08-78.19q.48-3.25,1.26-6.45a115.85,115.85,0,0,1-13.09-11.36,7,7,0,0,1,9.73-10l.16.17a101.87,101.87,0,0,0,15.15,12.59,7,7,0,0,1,2.73,8,54.91,54.91,0,0,0,49.25,72,7,7,0,0,1,6.61,7v.52a65.5,65.5,0,0,0,131-.16V71.36a7.18,7.18,0,0,1,6.12-7.21,7,7,0,0,1,7.88,6.95V81.28H371.6l27.46-27.06a27.82,27.82,0,1,1,10.4,9.4l-30,30a5.41,5.41,0,0,1-4.94,1.66h-112v32H456.94a27.75,27.75,0,1,1,0,14H262.51v43H374a7,7,0,0,1,4.95,2.05l90.8,90.8A27.69,27.69,0,0,1,511.51,301Zm-41-167a13.75,13.75,0,1,0,13.76-13.75h0A13.77,13.77,0,0,0,470.5,134Zm-62-95a13.75,13.75,0,1,0,13.76-13.75h0A13.77,13.77,0,0,0,408.5,39ZM391.76,462.6a13.75,13.75,0,1,0,13.75,13.76h0A13.77,13.77,0,0,0,391.76,462.6ZM350,359a13.75,13.75,0,1,0,13.76-13.75h0A13.77,13.77,0,0,0,350,359Zm44-55.68a13.75,13.75,0,1,0,13.75-13.75h0A13.77,13.77,0,0,0,394,303.35Zm-76-56.67a13.75,13.75,0,1,0,13.74-13.76A13.76,13.76,0,0,0,318,246.68Zm179.53,54.4a13.75,13.75,0,1,0-13.75,13.76,13.75,13.75,0,0,0,13.75-13.76Z"/><path class="cls-2" d="M177.64,315.71a108,108,0,0,1,36-178.38,8.65,8.65,0,0,0,5.46-8.23L218.78,109a8.34,8.34,0,0,0-10.95-7.77A143.94,143.94,0,0,0,152.6,341.6l-35,36.16a1.54,1.54,0,0,0,1.14,2.61l98.13-1.63-1.63-98.18a1.52,1.52,0,0,0-2.62-1l-35,36.18Z"/><path class="cls-3" d="M144.67,627.41H133.91L95.35,567.69a24.55,24.55,0,0,1-2.41-4.7h-.31a76.79,76.79,0,0,1,.42,10.29v54.13H84.27V552.49H95.66l37.51,58.78q2.36,3.66,3,5h.21a79,79,0,0,1-.52-11V552.49h8.78Z"/><path class="cls-4" d="M173.09,599.09v28.32h-8.78V552.49H184.9q12,0,18.62,5.85t6.61,16.51q0,10.67-7.34,17.45T183,599.09Zm0-38.66v30.72h9.2q9.09,0,13.87-4.15t4.78-11.73q0-14.84-17.56-14.84Z"/><path class="cls-5" d="M224.24,627.41V552.49h20.69q39.6,0,39.6,36.52,0,17.34-11,27.87t-29.44,10.53Zm8.78-67v59H244.2q14.73,0,22.93-7.89t8.21-22.36q0-28.79-30.62-28.79Z"/><path class="cls-6" d="M295.76,624.38V614a20.73,20.73,0,0,0,4.26,2.82,34.85,34.85,0,0,0,5.23,2.11,41.32,41.32,0,0,0,5.51,1.34,31,31,0,0,0,5.12.47q8.1,0,12.09-3a11.27,11.27,0,0,0,2.67-13.92,14.89,14.89,0,0,0-3.69-4.1,36.59,36.59,0,0,0-5.56-3.56q-3.21-1.7-6.92-3.57-3.92-2-7.32-4a31.67,31.67,0,0,1-5.9-4.49,18.67,18.67,0,0,1-3.94-5.56,18.95,18.95,0,0,1,.81-16.2,19.16,19.16,0,0,1,5.9-6.25,26.87,26.87,0,0,1,8.33-3.65,38.26,38.26,0,0,1,9.54-1.2q11.07,0,16.14,2.66v9.88q-6.63-4.6-17-4.6a28.08,28.08,0,0,0-5.75.6,16.19,16.19,0,0,0-5.12,2,11.24,11.24,0,0,0-3.66,3.5,9.29,9.29,0,0,0-1.41,5.22,10.84,10.84,0,0,0,1.07,5,12.22,12.22,0,0,0,3.17,3.81,30.74,30.74,0,0,0,5.09,3.34q3,1.62,6.92,3.56c2.68,1.32,5.23,2.71,7.63,4.18a34.64,34.64,0,0,1,6.32,4.86,21.45,21.45,0,0,1,4.31,5.9,16.62,16.62,0,0,1,1.6,7.42,18.88,18.88,0,0,1-2.17,9.38,17.85,17.85,0,0,1-5.85,6.24,25.59,25.59,0,0,1-8.49,3.47,46.22,46.22,0,0,1-10.14,1.08,41.89,41.89,0,0,1-4.39-.29q-2.61-.28-5.33-.84a42.36,42.36,0,0,1-5.14-1.36A16.24,16.24,0,0,1,295.76,624.38Z"/><path class="cls-7" d="M373.84,550.78H365.5v25.81h-3.38V550.78H353.8v-3.06h20Z"/><path class="cls-8" d="M386.54,577.08a9.6,9.6,0,0,1-7.3-2.89,10.71,10.71,0,0,1-2.73-7.67c0-3.46.95-6.17,2.84-8.11a10.21,10.21,0,0,1,7.68-2.92,9.24,9.24,0,0,1,7.2,2.84c1.72,1.89,2.58,4.52,2.58,7.87a11.09,11.09,0,0,1-2.79,7.91A9.77,9.77,0,0,1,386.54,577.08Zm.24-18.81a6.29,6.29,0,0,0-5,2.16,8.89,8.89,0,0,0-1.85,6,8.39,8.39,0,0,0,1.87,5.78,6.37,6.37,0,0,0,5,2.12,6,6,0,0,0,4.93-2.08,9,9,0,0,0,1.72-5.9,9.14,9.14,0,0,0-1.72-6A6,6,0,0,0,386.78,558.27Z"/><path class="cls-9" d="M410.71,577.08a9.59,9.59,0,0,1-7.3-2.89,10.71,10.71,0,0,1-2.73-7.67c0-3.46.95-6.17,2.84-8.11a10.19,10.19,0,0,1,7.67-2.92,9.21,9.21,0,0,1,7.2,2.84c1.73,1.89,2.59,4.52,2.59,7.87a11.09,11.09,0,0,1-2.79,7.91A9.77,9.77,0,0,1,410.71,577.08Zm.24-18.81a6.27,6.27,0,0,0-5,2.16,8.89,8.89,0,0,0-1.86,6,8.39,8.39,0,0,0,1.88,5.78,6.35,6.35,0,0,0,5,2.12,6,6,0,0,0,4.92-2.08,9,9,0,0,0,1.73-5.9,9.14,9.14,0,0,0-1.73-6A6,6,0,0,0,411,558.27Z"/><path class="cls-10" d="M429.56,576.59h-3.31V546.06h3.31Z"/><path class="cls-11" d="M439.63,573.61h-.08v3h-3.31V546.06h3.31V559.6h.08a7.8,7.8,0,0,1,7.12-4.11,7.56,7.56,0,0,1,6.22,2.77,11.46,11.46,0,0,1,2.24,7.42,12.74,12.74,0,0,1-2.52,8.28,8.35,8.35,0,0,1-6.88,3.12A6.77,6.77,0,0,1,439.63,573.61Zm-.08-8.31v2.87a6.1,6.1,0,0,0,1.66,4.34,5.91,5.91,0,0,0,8.92-.51,10.56,10.56,0,0,0,1.7-6.38,8.31,8.31,0,0,0-1.59-5.4,5.27,5.27,0,0,0-4.31-2,5.85,5.85,0,0,0-4.63,2A7.36,7.36,0,0,0,439.55,565.3Z"/><path class="cls-12" d="M469.11,577.08a9.59,9.59,0,0,1-7.3-2.89,10.71,10.71,0,0,1-2.73-7.67c0-3.46.94-6.17,2.84-8.11a10.19,10.19,0,0,1,7.67-2.92,9.24,9.24,0,0,1,7.2,2.84c1.72,1.89,2.59,4.52,2.59,7.87a11.09,11.09,0,0,1-2.79,7.91A9.78,9.78,0,0,1,469.11,577.08Zm.24-18.81a6.31,6.31,0,0,0-5,2.16,8.94,8.94,0,0,0-1.85,6,8.44,8.44,0,0,0,1.87,5.78,6.37,6.37,0,0,0,5,2.12,6,6,0,0,0,4.92-2.08,9,9,0,0,0,1.72-5.9,9.14,9.14,0,0,0-1.72-6A6,6,0,0,0,469.35,558.27Z"/><path class="cls-13" d="M499.72,556l-6.93,10.43,6.81,10.19h-3.85l-4.05-6.68c-.25-.42-.56-.94-.91-1.57h-.08c-.06.12-.38.64-.94,1.57l-4.13,6.68h-3.81l7-10.11L482.14,556H486l4,7c.29.52.58,1.06.87,1.61h.08l5.15-8.66Z"/></g></g></svg>