<?xml version="1.0" encoding="utf-8"?>
<!-- Generator: Adobe Illustrator 25.2.3, SVG Export Plug-In . SVG Version: 6.00 Build 0)  -->
<svg version="1.1" id="Layer_1" xmlns="http://www.w3.org/2000/svg" xmlns:xlink="http://www.w3.org/1999/xlink" x="0px" y="0px"
	 viewBox="0 0 180.7 220.8" style="enable-background:new 0 0 180.7 220.8;" xml:space="preserve">
<style type="text/css">
	.st0{fill:none;stroke:#312783;stroke-width:5;stroke-miterlimit:10;}
	.st1{fill:#29235C;}
	.st2{fill:none;stroke:#1D71B8;stroke-width:5;stroke-miterlimit:10;}
</style>
<circle class="st0" cx="67.3" cy="59.8" r="5.1"/>
<circle class="st0" cx="66.9" cy="113.1" r="5.1"/>
<circle class="st0" cx="83.2" cy="31.9" r="5.1"/>
<circle class="st0" cx="83.2" cy="142.4" r="5.1"/>
<line class="st0" x1="62.3" y1="60.1" x2="43.9" y2="60"/>
<line class="st0" x1="41.2" y1="113.1" x2="61.9" y2="113.1"/>
<g>
	<circle class="st0" cx="39.9" cy="96.5" r="5.1"/>
	<circle class="st0" cx="57.5" cy="132.1" r="5.1"/>
	<path class="st0" d="M62.6,132.1h5c10.2,0,18.5-8,18.4-17.9c0-0.4,0-0.8,0-1.2c-0.7-9.4-9.1-16.5-18.8-16.5H45"/>
</g>
<path class="st0" d="M83.2,26.8v-7.8c-0.2-9.1-7.8-16.3-16.9-16c-8.8,0.2-15.8,7.3-16,16v8.2h-6.4c-9.1,0.2-16.3,7.8-16,16.9
	c0.2,8.8,7.3,15.8,16,16H29.1C14.4,59.7,2.3,71.4,2,86.1s11.4,26.8,26,27.1c0.3,0,0.7,0,1,0h12.2c-9.1,0-16.4,7.4-16.4,16.4
	S32.1,146,41.2,146h7.3v8.2c0,9.1,7.4,16.4,16.5,16.4c9,0,18.2-7.6,18.2-16.6v-6.5"/>
<path class="st1" d="M41.4,220.2h-0.2c-0.5,0-1-0.3-1.2-0.7c-0.7-1.2-2.6-3.8-5.6-8c-4.2-5.9-6.5-9.6-7.1-11.1h-0.2
	c0.2,2.9,0.3,5.4,0.3,7.5c0,3.6,0.1,7.2,0.2,10.8c0,0.8-0.6,1.5-1.4,1.5c0,0,0,0-0.1,0l0,0c-0.8,0-1.5-0.7-1.5-1.5c0,0,0,0,0-0.1
	c0.2-3.5,0.2-7.1,0.2-10.9c0-3.6-0.1-6.9-0.2-9.7c0-0.8,0.6-1.5,1.4-1.5c0,0,0,0,0.1,0h1c0.5,0,1,0.3,1.3,0.7
	c0.7,1.2,2.4,3.7,5.1,7.6c3.8,5.5,6,9,6.5,10.7h0.2c-0.2-3-0.3-5.5-0.3-7.5c0-3.8-0.1-7.1-0.2-9.9c0-0.8,0.6-1.5,1.4-1.5
	c0,0,0,0,0.1,0l0,0c0.8,0,1.5,0.6,1.5,1.4c0,0,0,0,0,0c-0.1,2.9-0.2,6.1-0.2,9.7c0,3.8,0.1,7.4,0.2,10.9c0.1,0.8-0.5,1.5-1.3,1.6
	C41.4,220.2,41.4,220.2,41.4,220.2z"/>
<path class="st1" d="M81.9,202.4c0.1,2.5-1.1,4.8-3.1,6.2c-2.6,1.5-5.5,2.2-8.5,2.1c-0.4,0-0.8,0-1.2,0c0,2.3,0.1,4.9,0.2,8
	c0,0.9-0.6,1.6-1.5,1.6c0,0,0,0-0.1,0h-0.2c-0.9,0-1.5-0.7-1.5-1.6c0,0,0-0.1,0-0.1c0.1-3.1,0.2-6.7,0.2-10.8c0-3.5-0.1-6.7-0.2-9.6
	c0-0.9,0.6-1.6,1.5-1.6c0,0,0,0,0.1,0h1c0.3,0,1.1,0,2.4-0.1s2.4-0.1,3.4-0.1c2-0.1,3.9,0.5,5.6,1.6C81.2,199,82,200.7,81.9,202.4z
	 M78.9,203.4c0-3.1-2.1-4.7-6.4-4.7c-0.6,0-1.3,0-2,0.1c-0.8,0-1.5,0.7-1.5,1.6c0,1.6,0.1,3.7,0.1,6.3c0,0.9,0.7,1.5,1.6,1.6l0,0
	C76.1,208.3,78.8,206.7,78.9,203.4L78.9,203.4z"/>
<path class="st1" d="M121.4,207.5c0,3.3-1.1,6.5-3.3,9.1c-2.3,2.6-5.6,4.1-9.1,3.9c-1,0-2.4,0-4.4-0.1c-1-0.1-1.9-1-1.8-2
	c0.1-3.2,0.2-6.8,0.2-10.6c0-3.4,0-6.5-0.2-9.3c-0.1-1,0.7-1.9,1.8-2c0,0,0.1,0,0.1,0l0,0c0.5,0,1.2,0,2.2-0.1l2-0.1
	c4.3,0,7.4,1.1,9.5,3.2C120.4,201.7,121.5,204.5,121.4,207.5z M118.2,208.3c0.1-2.5-0.9-4.9-2.6-6.8c-1.7-1.8-4.4-2.7-8-2.7h-0.2
	c-1.1,0-1.9,0.9-1.9,2c0,0,0,0,0,0c0.1,2.3,0.1,4.6,0.1,6.9c0,2.8,0,5.5,0.1,8.4c0,1,0.8,1.8,1.7,1.9c0.4,0,0.8,0,1.2,0
	c3.2,0,5.6-1,7.1-2.9C117.4,213.2,118.3,210.8,118.2,208.3L118.2,208.3z"/>
<path class="st1" d="M156.6,214.1c0,4.5-3.1,6.7-9.4,6.7c-1.6,0-3.1-0.1-4.7-0.4c-0.8-0.2-1.3-0.9-1.1-1.7c0,0,0,0,0,0l0,0
	c0.2-0.8,0.9-1.2,1.7-1.1c0,0,0,0,0,0c1.4,0.4,2.9,0.6,4.4,0.6c4.1,0,6.2-1.2,6.2-3.5c0-1.2-0.6-2.3-1.6-3c-1.3-0.9-2.7-1.6-4.2-2.2
	c-1.7-0.7-3.2-1.6-4.6-2.7c-2.4-2.3-2.5-6.1-0.2-8.5c0.1-0.1,0.1-0.1,0.2-0.2c1.7-1.4,3.8-2,5.9-1.9c1.5,0,3.1,0.1,4.6,0.3
	c0.8,0.1,1.3,0.8,1.2,1.6l0,0c-0.1,0.8-0.8,1.3-1.6,1.2c0,0-0.1,0-0.1,0c-1.5-0.3-2.9-0.5-4.4-0.5c-3.1,0-4.7,1-4.7,3.1
	c0,1,0.5,2,1.3,2.5c1.2,0.8,2.5,1.4,3.9,1.9c1.8,0.7,3.4,1.6,4.9,2.8C155.8,210.3,156.6,212.1,156.6,214.1z"/>
<circle class="st2" cx="123.8" cy="8.2" r="5"/>
<circle class="st2" cx="148.4" cy="35.1" r="4.9"/>
<path class="st2" d="M143.5,35.1h-31.6c-6.6,0-12-5.4-12-12v-2.9c0-6.6,5.4-12,12-12h6.9l0,0"/>
<circle class="st2" cx="156.6" cy="52" r="4.9"/>
<circle class="st2" cx="173.3" cy="78.9" r="4.9"/>
<path class="st2" d="M168.3,78.9h-56.4c-6.6,0-12-5.4-12-12V64c0-6.6,5.4-12,12-12h39.8"/>
<circle class="st2" cx="124.5" cy="166.5" r="5.1"/>
<circle class="st2" cx="148.4" cy="139.6" r="4.9"/>
<path class="st2" d="M118.8,166.5h-6.9c-6.6,0-12-5.4-12-12v-2.9c0-6.6,5.4-12,12-12h31.6"/>
<circle class="st2" cx="156.6" cy="122.7" r="4.9"/>
<circle class="st2" cx="173.3" cy="95.8" r="4.9"/>
<path class="st2" d="M168.3,95.8h-56.4c-6.6,0-12,5.4-12,12v2.9c0,6.6,5.4,12,12,12h39.8"/>
<g>
	<circle class="st0" cx="40.3" cy="78.8" r="5.1"/>
	<circle class="st0" cx="57.9" cy="43.1" r="5.1"/>
	<path class="st0" d="M45.4,78.8h22.2c9.7,0,18.1-7.1,18.8-16.5c0-0.4,0-0.8,0-1.2c0-9.9-8.2-17.9-18.4-17.9h-5"/>
</g>
</svg>
